<?xml version="1.0" encoding="utf-8"?>
<!-- Generator: Adobe Illustrator 21.1.0, SVG Export Plug-In . SVG Version: 6.00 Build 0)  -->
<svg version="1.1" id="Layer_1" xmlns="http://www.w3.org/2000/svg" xmlns:xlink="http://www.w3.org/1999/xlink" x="0px" y="0px"
	 viewBox="0 0 32 29" style="enable-background:new 0 0 32 29;" xml:space="preserve">
<style type="text/css">
	.st0{fill:#FFFFFF;}
</style>
<path class="st0" d="M31.9,7.6L26.5,20c-0.2,0.4-0.6,0.7-1.1,0.7H10.6c-0.5,0-1-0.4-1.1-0.9L4.6,2.4H1.2C0.5,2.4,0,1.8,0,1.2
	S0.5,0,1.2,0h4.3c0.5,0,1,0.4,1.1,0.9l4.8,17.5h13.2l4.4-10H14.4c-0.7,0-1.2-0.5-1.2-1.2s0.5-1.2,1.2-1.2h16.4c0.4,0,0.8,0.2,1,0.5
	S32.1,7.2,31.9,7.6z M9.4,23.6c1.5,0,2.7,1.2,2.7,2.7c0,1.5-1.2,2.7-2.7,2.7c-1.5,0-2.7-1.2-2.7-2.7C6.7,24.8,7.9,23.6,9.4,23.6z
	 M26,23.6c1.5-0.1,2.8,1,2.9,2.5c0,0.7-0.2,1.4-0.7,1.9c-0.5,0.6-1.1,0.9-1.8,0.9c-0.1,0-0.1,0-0.2,0c-1.4,0-2.6-1.1-2.7-2.5
	C23.4,25,24.5,23.7,26,23.6z"/>
</svg>
