<svg 
 xmlns="http://www.w3.org/2000/svg"
 xmlns:xlink="http://www.w3.org/1999/xlink"
 width="49px" height="35px">
<path fill-rule="evenodd"  fill="rgb(241, 109, 127)"
 d="M43.374,8.549 C40.810,8.549 38.727,10.588 38.727,13.091 C38.727,14.434 39.334,15.630 40.286,16.463 L34.425,18.522 L26.083,8.820 C27.882,8.193 29.181,6.529 29.181,4.555 C29.181,2.051 27.097,0.011 24.534,0.011 C21.974,0.011 19.888,2.051 19.888,4.555 C19.888,6.510 21.165,8.163 22.934,8.806 L14.579,18.522 L8.719,16.463 C9.671,15.630 10.278,14.434 10.278,13.091 C10.278,10.588 8.194,8.549 5.632,8.549 C3.071,8.549 0.984,10.588 0.984,13.091 C0.984,15.224 2.503,17.007 4.532,17.493 L4.532,29.808 C4.532,29.895 4.563,29.968 4.582,30.050 C4.550,30.174 4.532,30.303 4.532,30.439 C4.532,34.859 22.456,34.989 24.500,34.989 C26.541,34.989 44.467,34.859 44.467,30.439 C44.467,30.303 44.448,30.174 44.418,30.050 C44.440,29.968 44.467,29.895 44.467,29.808 L44.467,17.493 C46.500,17.007 48.016,15.224 48.016,13.091 C48.019,10.588 45.935,8.549 43.374,8.549 ZM22.149,4.557 C22.149,3.270 23.220,2.223 24.536,2.223 C25.849,2.223 26.921,3.270 26.921,4.557 C26.921,5.844 25.849,6.890 24.536,6.890 C23.220,6.890 22.149,5.844 22.149,4.557 ZM14.556,20.865 C14.999,21.018 15.498,20.888 15.803,20.534 L24.501,10.415 L33.202,20.534 C33.505,20.888 34.002,21.018 34.447,20.867 L42.207,18.136 L42.207,28.093 C37.321,25.967 26.093,25.888 24.500,25.888 C22.907,25.888 11.677,25.967 6.792,28.093 L6.792,18.135 L14.556,20.865 ZM24.503,32.779 C15.795,32.779 10.249,31.766 7.941,30.914 C7.487,30.747 7.148,30.581 6.945,30.439 C7.666,29.916 10.006,29.204 13.913,28.703 C16.667,28.349 20.193,28.098 24.503,28.098 C28.813,28.098 32.339,28.349 35.094,28.703 C39.000,29.204 41.342,29.916 42.061,30.439 C41.858,30.585 41.520,30.747 41.067,30.914 C38.759,31.766 33.214,32.779 24.503,32.779 ZM3.249,13.091 C3.249,11.806 4.320,10.760 5.636,10.760 C6.952,10.760 8.022,11.806 8.022,13.091 C8.022,14.378 6.952,15.425 5.636,15.425 C4.320,15.425 3.249,14.378 3.249,13.091 ZM43.374,15.425 C42.058,15.425 40.987,14.378 40.987,13.091 C40.987,11.806 42.058,10.760 43.374,10.760 C44.687,10.760 45.761,11.806 45.761,13.091 C45.758,14.378 44.687,15.425 43.374,15.425 Z"/>
</svg>