<svg 
 xmlns="http://www.w3.org/2000/svg"
 xmlns:xlink="http://www.w3.org/1999/xlink"
 width="45px" height="32px">
<path fill-rule="evenodd"  fill="rgb(241, 109, 127)"
 d="M44.071,27.297 L41.256,27.297 C40.812,29.963 38.518,32.000 35.762,32.000 C33.004,32.000 30.710,29.963 30.266,27.297 L14.784,27.297 C14.341,29.963 12.046,32.000 9.290,32.000 C6.533,32.000 4.238,29.963 3.794,27.297 L1.857,27.297 C0.833,27.297 -0.000,26.454 -0.000,25.417 L-0.000,1.880 C-0.000,0.843 0.833,-0.000 1.857,-0.000 L27.415,-0.000 C28.439,-0.000 29.272,0.843 29.272,1.880 L29.272,3.789 L36.395,3.789 C36.477,3.789 36.556,3.800 36.632,3.820 C38.938,4.024 40.090,5.228 41.311,7.290 L44.871,13.396 C44.955,13.541 45.000,13.706 45.000,13.874 L45.000,26.357 C45.000,26.876 44.584,27.297 44.071,27.297 ZM9.290,30.120 C11.339,30.120 13.006,28.432 13.006,26.357 C13.006,24.282 11.339,22.594 9.290,22.594 C7.240,22.594 5.573,24.282 5.573,26.357 C5.573,28.432 7.240,30.120 9.290,30.120 ZM27.415,1.880 L1.857,1.880 L1.857,25.417 L3.794,25.417 C4.238,22.752 6.533,20.715 9.290,20.715 C12.047,20.715 14.341,22.752 14.784,25.417 L27.415,25.417 L27.415,1.880 ZM35.762,30.120 C37.811,30.120 39.478,28.432 39.478,26.357 C39.478,24.282 37.810,22.594 35.762,22.594 C33.712,22.594 32.044,24.282 32.044,26.357 C32.044,28.432 33.712,30.120 35.762,30.120 ZM39.819,8.430 L32.919,8.430 L32.919,12.197 C32.919,12.726 33.344,13.156 33.866,13.156 C33.931,13.156 33.995,13.163 34.056,13.175 L42.586,13.175 L39.819,8.430 ZM43.143,16.058 L42.263,16.058 C41.751,16.058 41.335,16.480 41.335,16.998 L41.335,17.909 L43.143,17.909 L43.143,16.058 ZM43.143,19.788 L40.406,19.788 C39.893,19.788 39.478,19.367 39.478,18.848 L39.478,16.998 C39.478,16.246 39.771,15.562 40.247,15.056 L33.866,15.056 C33.787,15.056 33.710,15.045 33.636,15.026 C32.197,14.908 31.062,13.684 31.062,12.197 L31.062,7.490 C31.062,6.971 31.478,6.550 31.990,6.550 L38.475,6.550 C37.822,5.922 37.082,5.669 35.897,5.669 L29.272,5.669 L29.272,25.417 L30.266,25.417 C30.709,22.752 33.004,20.715 35.762,20.715 C38.518,20.715 40.813,22.752 41.256,25.417 L43.143,25.417 L43.143,19.788 ZM35.761,23.574 C36.274,23.574 36.690,23.995 36.690,24.514 C36.690,25.033 36.274,25.454 35.761,25.454 C35.269,25.454 34.868,25.859 34.868,26.357 C34.868,26.855 35.269,27.261 35.761,27.261 C36.253,27.261 36.653,26.855 36.653,26.357 C36.653,25.838 37.069,25.417 37.582,25.417 C38.095,25.417 38.510,25.838 38.510,26.357 C38.510,27.892 37.277,29.141 35.761,29.141 C34.245,29.141 33.011,27.892 33.011,26.357 C33.011,24.822 34.245,23.574 35.761,23.574 ZM3.753,4.729 C3.753,4.210 4.169,3.789 4.681,3.789 L24.591,3.789 C25.104,3.789 25.519,4.210 25.519,4.729 C25.519,5.248 25.104,5.669 24.591,5.669 L4.681,5.669 C4.169,5.669 3.753,5.248 3.753,4.729 ZM9.290,23.574 C9.802,23.574 10.218,23.995 10.218,24.514 C10.218,25.033 9.802,25.454 9.290,25.454 C8.797,25.454 8.397,25.859 8.397,26.357 C8.397,26.855 8.797,27.261 9.290,27.261 C9.782,27.261 10.182,26.855 10.182,26.357 C10.182,25.838 10.598,25.417 11.110,25.417 C11.623,25.417 12.039,25.838 12.039,26.357 C12.039,27.892 10.806,29.141 9.290,29.141 C7.773,29.141 6.540,27.892 6.540,26.357 C6.540,24.822 7.773,23.574 9.290,23.574 Z"/>
</svg>