<svg 
 xmlns="http://www.w3.org/2000/svg"
 xmlns:xlink="http://www.w3.org/1999/xlink"
 width="40px" height="40px">
<path fill-rule="evenodd"  fill="rgb(241, 109, 127)"
 d="M36.584,17.028 L39.996,19.999 L36.584,22.973 L38.793,26.946 L34.583,28.551 L35.316,33.053 L30.820,33.099 L29.999,37.589 L25.759,36.073 L23.470,40.002 L19.999,37.098 L16.527,40.002 L14.239,36.073 L9.998,37.588 L9.177,33.098 L4.682,33.053 L5.414,28.547 L1.205,26.946 L3.415,22.971 L0.003,19.999 L3.415,17.026 L1.205,13.052 L5.415,11.449 L4.682,6.945 L9.177,6.901 L9.999,2.411 L14.239,3.926 L16.528,-0.002 L20.000,2.902 L23.472,-0.002 L25.761,3.927 L30.002,2.412 L30.823,6.902 L35.317,6.947 L34.585,11.451 L38.794,13.054 L36.584,17.028 ZM33.920,13.252 L32.460,12.697 L32.715,11.134 L33.087,8.848 L30.804,8.825 L29.244,8.808 L28.959,7.251 L28.542,4.973 L26.390,5.741 L24.922,6.265 L24.129,4.906 L22.967,2.912 L21.205,4.385 L19.999,5.392 L18.794,4.385 L17.032,2.912 L15.871,4.905 L15.078,6.264 L13.610,5.740 L11.459,4.972 L11.042,7.250 L10.756,8.807 L9.196,8.824 L6.914,8.846 L7.286,11.133 L7.540,12.695 L6.081,13.251 L3.946,14.064 L5.066,16.078 L5.833,17.456 L4.650,18.487 L2.915,19.998 L4.649,21.507 L5.832,22.538 L5.066,23.917 L3.945,25.931 L6.078,26.743 L7.538,27.299 L7.283,28.861 L6.912,31.150 L9.194,31.172 L10.755,31.189 L11.040,32.747 L11.456,35.025 L13.609,34.256 L15.077,33.732 L15.870,35.092 L17.032,37.086 L18.794,35.612 L19.999,34.604 L21.205,35.612 L22.967,37.086 L24.128,35.092 L24.920,33.733 L26.389,34.257 L28.540,35.026 L28.957,32.749 L29.242,31.191 L30.803,31.174 L33.085,31.153 L32.713,28.866 L32.460,27.303 L33.919,26.747 L36.053,25.932 L34.932,23.918 L34.166,22.540 L35.349,21.510 L37.083,19.997 L35.350,18.489 L34.166,17.459 L34.933,16.080 L36.054,14.065 L33.920,13.252 ZM24.672,27.426 C22.889,27.426 21.344,25.974 21.323,23.065 C21.323,20.133 22.889,18.501 24.783,18.501 C26.789,18.501 28.088,20.067 28.087,22.839 C28.087,25.905 26.502,27.426 24.672,27.426 ZM24.717,19.688 C23.505,19.688 22.844,21.142 22.844,22.976 C22.822,24.832 23.527,26.241 24.717,26.241 C25.994,26.241 26.566,24.854 26.566,22.932 C26.566,21.163 26.060,19.688 24.717,19.688 ZM15.199,27.387 L23.615,12.638 L24.848,12.638 L16.432,27.387 L15.199,27.387 ZM15.331,21.408 C13.547,21.408 12.005,19.954 11.983,17.024 C11.983,14.117 13.547,12.482 15.441,12.482 C17.446,12.482 18.768,14.050 18.768,16.823 C18.768,19.887 17.183,21.408 15.331,21.408 ZM15.376,13.669 C14.166,13.669 13.525,15.122 13.525,16.958 C13.481,18.813 14.166,20.222 15.376,20.224 C16.653,20.224 17.226,18.836 17.226,16.914 C17.226,15.145 16.720,13.669 15.376,13.669 Z"/>
</svg>